<svg xmlns="http://www.w3.org/2000/svg" viewBox="0 0 512 512" width="512" height="512"><defs>
  <radialGradient id="bg" cx="50%" cy="22%" r="90%">
    <stop offset="0" stop-color="#2a60c4"/><stop offset=".55" stop-color="#0c2a6e"/><stop offset="1" stop-color="#061536"/>
  </radialGradient>
  <linearGradient id="rim" x1="0" y1="0" x2="1" y2="1">
    <stop offset="0" stop-color="#ffe392"/><stop offset=".45" stop-color="#f0b02c"/><stop offset="1" stop-color="#a86a08"/>
  </linearGradient>
  <linearGradient id="face" x1=".2" y1="0" x2=".8" y2="1">
    <stop offset="0" stop-color="#ffd86a"/><stop offset="1" stop-color="#e59c18"/>
  </linearGradient></defs>
  <g transform="translate(256 250) scale(1.3409090909090908)">
    <circle cx="0" cy="12" r="176" fill="#000" opacity=".22"/>
    <circle r="176" fill="url(#rim)"/>
    <circle r="148" fill="url(#face)" stroke="#b77708" stroke-width="6"/>
    <circle r="148" fill="none" stroke="#fff3c4" stroke-width="3" stroke-dasharray="4 10" opacity=".55"/>
    <g transform="translate(3 4)">
  <g fill="#fff0b8">
    <rect x="-72" y="-92" width="144" height="30" rx="7"/>
    <rect x="-15" y="-92" width="30" height="184" rx="7"/>
    <rect x="-58" y="-26" width="116" height="22" rx="6" transform="rotate(-17)"/>
    <rect x="-58" y="16" width="116" height="22" rx="6" transform="rotate(-17)"/>
  </g></g>
    
  <g fill="#8a5400">
    <rect x="-72" y="-92" width="144" height="30" rx="7"/>
    <rect x="-15" y="-92" width="30" height="184" rx="7"/>
    <rect x="-58" y="-26" width="116" height="22" rx="6" transform="rotate(-17)"/>
    <rect x="-58" y="16" width="116" height="22" rx="6" transform="rotate(-17)"/>
  </g>
    <ellipse cx="-62" cy="-84" rx="62" ry="26" fill="#fff" opacity=".28" transform="rotate(-32 -62 -84)"/>
  </g></svg>